HIERARCHY
ROOT Hips
{
	OFFSET -14.64140 90.27770 -84.91600
	CHANNELS 6 Xposition Yposition Zposition Zrotation Xrotation Yrotation
	JOINT Spine
	{
		OFFSET 0.00000 13.20850 -1.60436
		CHANNELS 3 Zrotation Xrotation Yrotation
		JOINT Spine1
		{
			OFFSET 0.00000 8.61716 0.00000
			CHANNELS 3 Zrotation Xrotation Yrotation
			JOINT Spine2
			{
				OFFSET 0.00000 8.61717 0.00000
				CHANNELS 3 Zrotation Xrotation Yrotation
				JOINT Spine3
				{
					OFFSET 0.00000 8.61717 0.00000
					CHANNELS 3 Zrotation Xrotation Yrotation
					JOINT Neck
					{
						OFFSET 0.00000 11.07920 1.10792
						CHANNELS 3 Zrotation Xrotation Yrotation
						JOINT Neck1
						{
							OFFSET 0.00000 7.08032 0.00000
							CHANNELS 3 Zrotation Xrotation Yrotation
							JOINT Head
							{
								OFFSET 0.00000 7.08031 0.00000
								CHANNELS 3 Zrotation Xrotation Yrotation
								End site
								{
									OFFSET 0.00000 0.00000 0.00000
								}
							}
						}
					}
					JOINT RightShoulder
					{
						OFFSET -0.01000 7.91373 5.19711
						CHANNELS 3 Zrotation Xrotation Yrotation
						JOINT RightArm
						{
							OFFSET -18.41580 0.00000 0.00000
							CHANNELS 3 Zrotation Xrotation Yrotation
							JOINT RightForeArm
							{
								OFFSET -29.11090 0.00000 0.00000
								CHANNELS 3 Zrotation Xrotation Yrotation
								JOINT RightHand
								{
									OFFSET -24.65040 0.00000 0.00000
									CHANNELS 3 Zrotation Xrotation Yrotation
									JOINT RightHandThumb1
									{
										OFFSET -5.35114 -0.85590 3.97906
										CHANNELS 3 Zrotation Xrotation Yrotation
										JOINT RightHandThumb2
										{
											OFFSET -4.52789 0.00000 0.00000
											CHANNELS 3 Zrotation Xrotation Yrotation
											JOINT RightHandThumb3
											{
												OFFSET -2.46976 0.00000 0.00000
												CHANNELS 3 Zrotation Xrotation Yrotation
												End site
												{
													OFFSET 0.00000 0.00000 0.00000
												}
											}
										}
									}
									JOINT RightHandIndex1
									{
										OFFSET -14.26970 0.00000 2.88139
										CHANNELS 3 Zrotation Xrotation Yrotation
										JOINT RightHandIndex2
										{
											OFFSET -5.48836 0.00000 0.00000
											CHANNELS 3 Zrotation Xrotation Yrotation
											JOINT RightHandIndex3
											{
												OFFSET -3.01859 0.00000 0.00000
												CHANNELS 3 Zrotation Xrotation Yrotation
												End site
												{
													OFFSET 0.00000 0.00000 0.00000
												}
											}
										}
									}
									JOINT RightHandMiddle1
									{
										OFFSET -14.26970 0.00000 -0.09147
										CHANNELS 3 Zrotation Xrotation Yrotation
										JOINT RightHandMiddle2
										{
											OFFSET -6.17441 0.00000 0.00000
											CHANNELS 3 Zrotation Xrotation Yrotation
											JOINT RightHandMiddle3
											{
												OFFSET -3.56743 0.00000 0.00000
												CHANNELS 3 Zrotation Xrotation Yrotation
												End site
												{
													OFFSET 0.00000 0.00000 0.00000
												}
											}
										}
									}
									JOINT RightHandRing1
									{
										OFFSET -12.69180 0.00000 -3.06433
										CHANNELS 3 Zrotation Xrotation Yrotation
										JOINT RightHandRing2
										{
											OFFSET -5.62556 0.00000 0.00000
											CHANNELS 3 Zrotation Xrotation Yrotation
											JOINT RightHandRing3
											{
												OFFSET -3.56744 0.00000 0.00000
												CHANNELS 3 Zrotation Xrotation Yrotation
												End site
												{
													OFFSET 0.00000 0.00000 0.00000
												}
											}
										}
									}
									JOINT RightHandPinky1
									{
										OFFSET -11.11390 0.00000 -6.03719
										CHANNELS 3 Zrotation Xrotation Yrotation
										JOINT RightHandPinky2
										{
											OFFSET -4.52789 0.00000 0.00000
											CHANNELS 3 Zrotation Xrotation Yrotation
											JOINT RightHandPinky3
											{
												OFFSET -2.46976 0.00000 0.00000
												CHANNELS 3 Zrotation Xrotation Yrotation
												End site
												{
													OFFSET 0.00000 0.00000 0.00000
												}
											}
										}
									}
								}
							}
						}
					}
					JOINT LeftShoulder
					{
						OFFSET 0.01000 7.91373 5.19711
						CHANNELS 3 Zrotation Xrotation Yrotation
						JOINT LeftArm
						{
							OFFSET 18.41580 0.00000 0.00000
							CHANNELS 3 Zrotation Xrotation Yrotation
							JOINT LeftForeArm
							{
								OFFSET 29.11090 0.00000 0.00000
								CHANNELS 3 Zrotation Xrotation Yrotation
								JOINT LeftHand
								{
									OFFSET 24.65040 0.00000 0.00000
									CHANNELS 3 Zrotation Xrotation Yrotation
									JOINT LeftHandThumb1
									{
										OFFSET 5.35114 -0.85590 3.97906
										CHANNELS 3 Zrotation Xrotation Yrotation
										JOINT LeftHandThumb2
										{
											OFFSET 4.52789 0.00000 0.00000
											CHANNELS 3 Zrotation Xrotation Yrotation
											JOINT LeftHandThumb3
											{
												OFFSET 2.46977 0.00000 0.00000
												CHANNELS 3 Zrotation Xrotation Yrotation
												End site
												{
													OFFSET 0.00000 0.00000 0.00000
												}
											}
										}
									}
									JOINT LeftHandIndex1
									{
										OFFSET 14.26970 0.00000 2.88139
										CHANNELS 3 Zrotation Xrotation Yrotation
										JOINT LeftHandIndex2
										{
											OFFSET 5.48836 0.00000 0.00000
											CHANNELS 3 Zrotation Xrotation Yrotation
											JOINT LeftHandIndex3
											{
												OFFSET 3.01859 0.00000 0.00000
												CHANNELS 3 Zrotation Xrotation Yrotation
												End site
												{
													OFFSET 0.00000 0.00000 0.00000
												}
											}
										}
									}
									JOINT LeftHandMiddle1
									{
										OFFSET 14.26970 0.00000 -0.09147
										CHANNELS 3 Zrotation Xrotation Yrotation
										JOINT LeftHandMiddle2
										{
											OFFSET 6.17440 0.00000 0.00000
											CHANNELS 3 Zrotation Xrotation Yrotation
											JOINT LeftHandMiddle3
											{
												OFFSET 3.56744 0.00000 0.00000
												CHANNELS 3 Zrotation Xrotation Yrotation
												End site
												{
													OFFSET 0.00000 0.00000 0.00000
												}
											}
										}
									}
									JOINT LeftHandRing1
									{
										OFFSET 12.69180 0.00000 -3.06433
										CHANNELS 3 Zrotation Xrotation Yrotation
										JOINT LeftHandRing2
										{
											OFFSET 5.62556 0.00000 0.00000
											CHANNELS 3 Zrotation Xrotation Yrotation
											JOINT LeftHandRing3
											{
												OFFSET 3.56744 0.00000 0.00000
												CHANNELS 3 Zrotation Xrotation Yrotation
												End site
												{
													OFFSET 0.00000 0.00000 0.00000
												}
											}
										}
									}
									JOINT LeftHandPinky1
									{
										OFFSET 11.11390 0.00000 -6.03719
										CHANNELS 3 Zrotation Xrotation Yrotation
										JOINT LeftHandPinky2
										{
											OFFSET 4.52789 0.00000 0.00000
											CHANNELS 3 Zrotation Xrotation Yrotation
											JOINT LeftHandPinky3
											{
												OFFSET 2.46976 0.00000 0.00000
												CHANNELS 3 Zrotation Xrotation Yrotation
												End site
												{
													OFFSET 0.00000 0.00000 0.00000
												}
											}
										}
									}
								}
							}
						}
					}
					JOINT pCube4
					{
						OFFSET 0.00000 10.91090 1.10792
						CHANNELS 3 Zrotation Xrotation Yrotation
						End site
						{
							OFFSET 0.00000 0.00000 0.00000
						}
					}
				}
			}
		}
	}
	JOINT RightUpLeg
	{
		OFFSET -9.98441 0.00000 0.00000
		CHANNELS 3 Zrotation Xrotation Yrotation
		JOINT RightLeg
		{
			OFFSET 0.00000 -42.11790 0.00000
			CHANNELS 3 Zrotation Xrotation Yrotation
			JOINT RightFoot
			{
				OFFSET 0.00000 -45.00020 -0.00001
				CHANNELS 3 Zrotation Xrotation Yrotation
				JOINT RightForeFoot
				{
					OFFSET 0.00000 -3.74820 0.00000
					CHANNELS 3 Zrotation Xrotation Yrotation
					JOINT RightToeBase
					{
						OFFSET 0.00000 0.06325 14.43120
						CHANNELS 3 Zrotation Xrotation Yrotation
						End site
						{
							OFFSET 0.00000 0.00000 0.00000
						}
					}
				}
			}
		}
	}
	JOINT LeftUpLeg
	{
		OFFSET 9.98441 0.00000 0.00000
		CHANNELS 3 Zrotation Xrotation Yrotation
		JOINT LeftLeg
		{
			OFFSET 0.00000 -42.11800 0.00000
			CHANNELS 3 Zrotation Xrotation Yrotation
			JOINT LeftFoot
			{
				OFFSET 0.00000 -45.00070 0.00000
				CHANNELS 3 Zrotation Xrotation Yrotation
				JOINT LeftForeFoot
				{
					OFFSET 0.00000 -3.74824 0.00000
					CHANNELS 3 Zrotation Xrotation Yrotation
					JOINT LeftToeBase
					{
						OFFSET 0.00000 0.06325 14.43110
						CHANNELS 3 Zrotation Xrotation Yrotation
						End site
						{
							OFFSET 0.00000 0.00000 0.00000
						}
					}
				}
			}
		}
	}
}
MOTION
Frames: 4
Frame Time: 0.050000
0.008009453074012738 -0.03476397897157336 -0.02809344849456515 0.04497509486252385 0.015667308557999277 0.014112806208494519 4.0583433431409635 4.432259560476882 -1.8477181431276806 -0.96912885478847 3.860663147927872 0.44285644257838425 -0.6001891974994887 -1.0301581663374904 0.43536003829997993 -0.6013734577272588 0.18711753946465254 -0.39469625804363595 -0.9753332589949336 13.796135505016679 1.3531349476201397 0.22570445084498245 -0.920043943395323 3.286794585951766 0.1354088219931594 -17.853115637024295 0.24736601003304065 -8.238217208640954 3.0135250003668217 -17.005262288519333 80.55766189268974 15.258302741495024 2.343028779958976 -0.6228265337474717 6.026199261753463 55.24056462994166 14.348483383211873 -0.21946449149915068 -1.1506229196062172 4.499624275002668 -0.09973126502475803 -1.6092773475296744 0.01991735556331007 0.025265850532265433 -56.22066237524609 0.010611636659812651 0.01831087582999247 -56.227312023380534 -38.750421437911015 0.018060021010852856 -0.041448209282615056 0.012443054682776384 0.04895103340479657 0.038803510462385615 -0.044996179178200944 0.003460560914197845 -0.04495554784901865 -36.73860171843109 -0.02877755461562836 0.03202924721683915 -0.026862452261806082 -0.027478737214444236 0.008771852421322715 -0.029389094431077546 -0.04903984753490117 -0.04798383003825097 -19.720742847677062 0.01746704333669517 -0.026635392427939993 -0.006434075791393408 -0.035920914321446756 -0.04459336826382631 0.036346645753668125 0.02838692497961982 0.010336188827094068 24.008724718672813 0.04202407597510973 0.010422001105663322 28.898214614846474 0.013408804699099693 0.011709598066091138 28.90862347774243 0.017717300155607595 0.020409982631510653 10.48915358279918 2.3595965676738038 14.961580226233092 -72.82395501322002 25.533626307351618 -18.028677463683167 16.681783548240812 -6.808681476450049 -71.91480486253653 -7.134855935311417 1.088931988836303 -2.5502237544067152 -0.5097545657651887 0.08238566391614205 -8.100691280999131 -0.0011453727335935637 -0.004164629404133193 44.611270469153524 0.0462580233157897 0.039420744538473995 44.54840676182744 12.486441119705717 0.012829676235987469 0.04152448335208396 0.0393539480985883 -0.03981646300645014 0.03756626217071064 0.019165238523192598 0.03228408711875265 0.04967060584752209 11.074311624946374 -0.0030052962597489326 -0.012060388651982263 -0.011109598921288783 -0.028046623165445803 -0.012673579583684248 -0.026822937138970188 -0.04107026756959545 -0.006352535549517828 4.789806981564234 -0.02619353503329063 0.01861887226278642 -0.010084074417704838 -0.0001589897170499705 0.03405313131451014 -0.01270104652715628 -0.04962329869158172 0.012952272574266906 -5.551886810226719 0.03292199547112106 -0.04147118481206086 -6.762300273299444 -0.01660934075387274 0.00833113780244254 -6.704803441103041 0.04032506407149406 -0.04457652312816854 -0.04007298679397056 0.029589605173939895 -0.017811014522209904 8.020946493734494 3.5276008570892725 -19.19597555650402 0.0003478334540513022 10.375961811824828 -0.020838188949758 -5.612642010982584 -15.61960958955609 3.217854477512856 -0.03393555390438323 -0.004536572749255474 -0.01809831287523642 0.039159971867770156 4.702586873580863 0.001610031221392971 12.491353869305016 -8.254084595089624 6.8745565021205595 -0.024340093129010115 46.4121094182658 -0.01520929406228098 -4.3301261459301275 -14.710997247320421 -3.855441949877543 -0.0424871129235947 -0.029371485872102934 0.019441664632507592 0.030100437892432167 -10.743859272886256 0.016114758002922665 
0.003603519315225552 0.027547227709831458 0.04406257253769488 -0.011207258597807987 -0.045786987924752276 0.030199090791839113 4.222217414392393 4.286811987393838 -1.83921818826747 -0.9299773222457703 3.8739694745289994 0.3780721619811843 -0.6128204847836727 -1.0391129870124012 0.4231662320909449 -0.43151730467001576 0.1619515337737054 -0.3710584695314913 -0.7147264264429262 13.90232193220066 0.7163791831837888 0.23289074590237469 -0.8921211338113306 1.9185927990008658 0.31901758974485356 -17.954685300197884 0.13967549414418343 -8.519279497451874 3.0042642593208937 -17.09063862245641 80.6969191136816 15.397342468316303 2.2474470398874513 -0.5234193592064919 5.746296182019775 54.49691510994721 14.385178075376944 -0.1837645069819227 -0.9793282492979571 4.535431743867333 -0.16184762005975376 -1.5547137700706317 0.005514111670437263 -0.005872071361855346 -56.212625233772755 -0.002478208557460191 -0.034627718604986785 -56.18768065614827 -38.81473820870438 0.037375180960410696 -0.008330127670268308 0.0010986376202292466 0.015036589394511309 0.01225734010453566 0.003967094777493613 0.04959220467176923 -0.008621099970469712 -36.64632528002084 0.019152577723697453 0.009100027155635628 0.007738087521126171 0.04754278886849806 0.04845500605736973 -0.027264034602908875 0.011729714134530935 0.007988204711128773 -19.80434008694657 0.033748017770645476 0.016262969202984073 0.04181748691594701 0.046195843015811124 -0.011234850617985558 -0.03305326550194289 -0.02148436550429639 0.00832984702712481 24.02850410298338 0.031186427111987623 -0.010561204899360577 28.81829319606764 0.025843481656050948 0.01283523447669813 28.84870737329054 0.005280056191833376 0.0351670890079761 10.225533837607976 2.371279353894538 14.968803332058311 -72.88308927571126 26.429956039721148 -16.88355522088715 17.75627708669581 -8.243430626308609 -73.63074135220437 -6.178142675650384 1.5096362843527447 -3.8237944228024956 -0.4419351402590203 0.05748520671546085 -8.14536537136444 0.031306507019683315 -0.03979547038345452 44.56103807056834 -0.04814588154877241 -0.005597423028819132 44.550688397119465 12.41959370404868 -0.015375120171763568 -0.041831027069357096 0.04783196819349291 0.036721950191769485 -0.012366928720549312 0.03501371647502288 -0.048097110484608276 0.0033786101532034332 11.138517951059516 -0.01603760242732621 0.005789991660946478 -0.0031263520210741153 0.005604902608438811 0.002001914855801269 -0.028263401581613775 -0.023335178891893186 0.01449121664390939 4.763476580303637 -0.027167419267185834 0.03322572422705141 0.0374586919506979 -0.013360577958714058 -0.03464152444866387 0.04383624109792086 0.04331150968132347 0.02164070602177059 -5.5922848513337255 0.002547161436777061 -0.016297647176525754 -6.689932338235918 0.023443113117368457 0.0006416360265093366 -6.752976709273772 -0.030084201528133677 -0.04006543201650505 0.03232813759986821 0.008101862709614795 -0.004924523676915537 8.001905546654692 3.503219022965344 -19.203288467424606 -0.0017077950240493908 10.40460007342879 0.032934294525854946 -5.622436627125821 -15.676858821049942 3.162577259785173 -0.017579991587420303 0.03468506274438064 0.021143484972479188 0.014480081594872504 4.678137145818141 -0.014377122388417254 12.446237841599165 -8.206224658496646 6.858216554876676 0.04093925460498184 46.33868108094255 0.011854004241550878 -4.2988923986319545 -14.714118494213462 -3.8666960084612048 -0.03185904675337035 -0.011985027141273587 -0.025924536645275945 0.041478229268026176 -10.715138896587641 -0.026750698587052847 
0.03804205030487634 -0.0074281188718929156 -0.0025475844843251133 -0.0392048921488041 -0.04847216405911738 0.024470807320593254 4.413831871255494 4.184103355179413 -1.9090017010465914 -0.9064786308419565 3.878871076229092 0.4231700364276126 -0.6649662497709656 -1.0777400666682706 0.491472145311588 -0.30087030083536453 0.22373416600245988 -0.3420859152671616 -0.5672602926048895 13.928680694775501 0.07705711614302418 0.3204986801564553 -0.9888894054174824 0.5545492987913248 0.6289451568511729 -18.019006150785692 -0.06103759997328656 -8.636086520587497 3.012475046340745 -17.275400619047534 80.97423819356177 15.28657601662503 1.9876361690895017 -0.2552271880641088 5.563538830842377 53.51158003610648 14.610278051292356 -0.1642598095001221 -0.7093861845731728 4.4847705157190205 -0.10417343716637166 -1.6073328934162983 -0.03816573572924908 -0.0358869936151409 -56.208231736558375 0.0311443414229184 0.039167424475171936 -56.189958250704635 -38.781620063038154 -0.026236632192762063 0.007549338483278345 -0.0010116290298311718 -0.002725685909549691 -0.012212572815566704 0.012859463973661632 -0.0022136454449043553 0.022693552358121184 -36.72358815557639 0.04395001499575635 -0.04402423452133171 -0.0043500782493107034 -0.020620716452433255 0.01842118413369949 -0.008153323520552416 0.02309983441207801 -0.002059034232633771 -19.735280145769465 -0.03830948728609833 0.028363538884403534 -0.0046583664238950525 -0.02174558510355745 0.02436750246154425 -0.03757693333103282 0.016639651656693965 0.03552901381364757 24.02881838097002 -0.0014811837082461695 -0.02882924726273306 28.854007925604858 -0.019326740311135553 -0.04068611671837375 28.81705629449287 -0.032128355104871 -0.010760709861524186 10.039016206590006 2.3521197499464335 14.972279463596937 -72.96628718215442 27.102144428653535 -15.786570154766839 18.207899394786388 -8.937566767231944 -75.58586397044535 -5.63925760197785 2.0324173186038 -5.038543230350703 -0.5163080724500515 0.10960335783561324 -8.173587115304784 0.038626975443585454 -0.004700855185461158 44.57049214525776 -0.034151670899770704 -0.017625871312808853 44.55906292680099 12.42762982039022 -0.04660282696696526 -0.03884899048472931 0.04718242705376552 -0.04743244834542384 -0.013682432435152382 -0.03243819572883231 -0.011960436888674602 0.04632691127808414 11.110202372926253 0.005008400107978394 0.008871457005958146 0.0005784584300646798 -0.003515922991983867 0.02461779165645385 -0.027235648832609455 0.045204307015944425 0.003992353248675078 4.76933455029561 -0.024721265676376357 -0.024027767019022192 0.027572711368538415 0.025372431615098584 0.002514221205686804 0.03784301176362914 -0.03223069542368819 0.022576480632651122 -5.55894546187975 -0.03277037676067304 -0.016460086012536176 -6.71943525275119 0.037099659404082656 -0.04856459044563175 -6.711719143241495 0.01611684891219266 -0.02602990245929754 0.03176071916064869 0.04188558938871124 0.03630611115924732 8.026459331331312 3.4456520610666006 -19.256327178493056 -0.045829849049959896 10.385102486728293 0.062323179529317804 -5.664527353698834 -15.679562776936297 3.2281844841921914 -0.02604425321209814 0.02352172432891395 0.022369902894700436 -0.022329245339954347 4.717363028156404 0.04176518917940698 12.429938714454785 -8.239462295096983 6.895535718399192 -0.013557687716824638 46.36361836678719 -0.009946041401374714 -4.311489457174612 -14.724851435085661 -3.829435148351898 0.027181024902723994 -0.016668849673612554 0.037217899828887284 -0.04510348027476409 -10.721544646791736 -0.0003053319093738252 
0.030848064078277466 0.03883725569908758 0.04678417599385676 -0.049073556440576954 0.02490701760652134 -0.0037686999593641414 4.630957081224 4.1236799552341195 -1.9339698746066594 -0.9156372903156283 3.88455040451912 0.4158324079200154 -0.6275839069893896 -1.0770271397313806 0.5171874441596029 -0.16546440420638053 0.1416332859098724 -0.3110981610129906 -0.2964913357665635 13.938938746376497 -0.48965212482525766 0.34670759519982614 -1.0653604761478055 -0.6565968663576143 0.8023152834006787 -18.155804183143456 -0.1640635610698639 -8.793871046723185 3.06861463133001 -17.519850805832135 81.18710850526213 14.771944274288137 1.8123852725946892 -0.1621666555312798 5.531257208570163 52.32895785881252 14.80568330060169 -0.1934216727802547 -0.5449009721197238 4.508637343268176 -0.12880973900849021 -1.6109425334140177 0.0008268722556013489 -0.0024225153494637636 -56.20598413758049 0.038571854353850174 0.025874277401996482 -56.22285651058029 -38.8180176780066 -0.02107719215864937 -0.028577278965282116 -0.023634095485754868 -0.012644034849485258 0.03133457840418819 -0.03042764870688162 0.039256497120981115 -0.021518362513126218 -36.70357121261731 0.010343125886011323 -0.0022264345485003495 -0.03180467080010515 0.0492998270173852 -0.02186481544445101 0.04611033715517354 -0.0131280470184885 0.0397129868745427 -19.743119570001525 -0.021121314593197382 0.04147168684992446 0.009439378319052106 -0.0027220939816579902 -0.0416200897044726 0.03313063629286722 -0.010897819160713309 -0.007710658365053775 24.09513960801623 0.0002633663262270694 -0.02697177311836681 28.85462042609413 0.032914379829821504 0.01775636383461946 28.88502608538568 -0.03165745289960865 -0.041872545976288214 9.883468628160571 2.319493112808752 15.01643758779344 -73.08688655869192 27.531356827053752 -14.905985748671842 17.814303152185346 -9.194817082843354 -76.35546301853144 -5.480937932178168 2.4503707145209392 -5.871803112789148 -0.4377211956218861 0.08338870912068048 -8.148091874586523 0.010651628819549203 0.010647804995487054 44.59130019493428 -0.028385578881891027 0.015374702783213111 44.600799580757155 12.4442330133029 0.02866432287269006 -0.012775148372971352 0.0355219913462889 0.040757567870086164 -0.01372171531772878 0.027361274893418115 -0.024410531343725887 0.03536212399190878 11.143363759269487 0.0118382913421329 -0.046029567389083155 -0.011974767974530504 0.01730898622587196 0.027836870233860986 0.01955160680286193 -0.011838952409363208 -0.02107357019875329 4.730117457631266 0.02841810311233914 0.029341812571856973 0.014010231581772756 0.007659512050791601 -0.045720547915353356 -0.027001074636131658 0.02598293015719212 -0.01735097300917143 -5.645671365639702 0.010991167673257113 -0.01011168749217109 -6.718060314683749 -0.002444844743554555 0.010536611466512373 -6.734731381265722 -0.037071428557870795 -0.00622712112009949 -0.045313833085340594 0.03650758957768006 -0.016093167832663374 8.039703600672047 3.5224149646229423 -19.18911984857762 0.0431875883821383 10.383252229686134 0.015372006835962654 -5.618460553647496 -15.678556215482912 3.229477134991888 0.000339409506766246 0.0043514247985527825 0.01937245481017452 0.021346529571757804 4.744975538769808 0.004002651272200586 12.459594295394794 -8.240932939315856 6.852990724798088 -0.02838352861866775 46.369886812247714 0.014852138755671887 -4.28463831877825 -14.769196515707247 -3.7866634527472915 -0.04020877349297067 -0.0046674115716699854 -0.005571360430709976 -0.04537321439854571 -10.696118348089952 0.036250360181779066 
